<?xml version="1.0" encoding="UTF-8" standalone="no"?><!DOCTYPE svg PUBLIC "-//W3C//DTD SVG 1.1//EN" "http://www.w3.org/Graphics/SVG/1.1/DTD/svg11.dtd"><svg width="100%" height="100%" viewBox="0 0 368 316" version="1.1" xmlns="http://www.w3.org/2000/svg" xmlns:xlink="http://www.w3.org/1999/xlink" xml:space="preserve" xmlns:serif="http://www.serif.com/" style="fill-rule:evenodd;clip-rule:evenodd;stroke-miterlimit:10;"><g><path d="M9.702,18.219c0.359,-0.298 0.689,-0.588 1.04,-0.87c1.298,-1.046 2.656,-1.989 4.066,-2.825c7.384,-4.435 16.487,-6.601 25.353,-8.073c19.885,-3.302 40.187,-3.944 60.402,-4.573c54.621,-1.709 109.375,-3.413 163.864,0.523c21.528,1.553 43.53,4.153 63.039,12.123c2.796,1.139 5.537,2.395 8.224,3.769c5.436,2.783 10.656,6.172 14.998,10.218c4.08,3.794 7.388,8.151 9.365,13.105c4.123,10.317 1.941,21.905 -2.767,32.017c-1.955,4.091 -4.16,8.02 -6.598,11.759c-3.635,5.694 -7.643,11.225 -11.299,16.914c-13.01,20.225 -21.5,45.813 -9.49,66.556c3.451,5.96 8.439,11.192 11.252,17.413c3.588,7.958 3.312,16.795 2.171,25.379c-0.149,1.09 -0.305,2.169 -0.47,3.237c-1.949,12.728 -5.616,26.442 -16.922,34.388c-11.744,8.257 -28.421,7.84 -42.996,4.905c-22.666,-4.611 -43.573,-14.208 -64.704,-22.874c-21.13,-8.665 -43.236,-16.582 -66.458,-17.433c-20.506,-0.752 -44.424,4.877 -58.034,19.506c-13.218,14.208 -38.066,15.291 -55.974,6.707c-12.293,-5.89 -21.464,-16.501 -25.332,-28.436c-0.783,-2.396 -1.347,-4.878 -1.682,-7.407c-0.311,-2.31 -0.412,-4.651 -0.302,-6.985c0.054,-1.153 0.158,-2.293 0.302,-3.421c2.992,-23.552 24.531,-42.13 37.624,-63.168c6.398,-10.276 10.915,-22.62 6.516,-33.701c-6.71,-16.885 -30.043,-22.89 -44.133,-35.454c-2.652,-2.287 -4.986,-5.015 -6.925,-8.094c-6.836,-11.183 -4.313,-26.286 5.87,-35.205Z" style="fill:#ffdede;fill-rule:nonzero;"/><g><path d="M26.304,38.447l0,163.764c0,3.307 2.721,6.028 6.028,6.028l329.512,0c3.307,0 6.028,-2.721 6.028,-6.028l0,-163.764l-341.568,0Z" style="fill:#fff;fill-rule:nonzero;"/><g><path d="M364.883,26.978l-335.59,0c-1.64,0 -2.989,1.35 -2.989,2.99l0,8.71l341.568,0l0,-8.71c0,-1.64 -1.349,-2.99 -2.989,-2.99Z" style="fill:#f0c8c8;fill-rule:nonzero;"/><ellipse cx="32.683" cy="34.495" rx="2.332" ry="2.285" style="fill:#fff;"/><ellipse cx="38.962" cy="34.495" rx="2.332" ry="2.285" style="fill:#fff;"/><ellipse cx="45.241" cy="34.495" rx="2.332" ry="2.285" style="fill:#fff;"/></g></g><g><rect x="113.104" y="62.415" width="56.153" height="34.576" style="fill:#ffebeb;"/><rect x="35.354" y="62.415" width="56.153" height="34.576" style="fill:#f9f9f9;"/><rect x="190.854" y="62.415" width="56.153" height="34.576" style="fill:#f9f9f9;"/><rect x="35.354" y="111.846" width="56.153" height="34.576" style="fill:#f9f9f9;"/><rect x="113.104" y="111.846" width="56.153" height="34.576" style="fill:#f9f9f9;"/><rect x="190.854" y="111.846" width="56.153" height="34.576" style="fill:#f9f9f9;"/><rect x="35.354" y="161.274" width="56.153" height="34.576" style="fill:#f9f9f9;"/><rect x="113.104" y="161.274" width="56.153" height="34.576" style="fill:#f9f9f9;"/><rect x="190.854" y="161.274" width="56.153" height="34.576" style="fill:#f9f9f9;"/></g><g><path d="M84.931,310.827c0,0 3.215,-32.918 -12.235,-54.086c-6.482,-8.886 -10.111,-19.484 -10.006,-30.354c0.057,-5.156 0.591,-10.287 1.594,-15.329" style="fill:none;fill-rule:nonzero;stroke:#876363;stroke-width:0.71px;"/><path d="M54.635,197.654c0.749,3.831 9.857,13.786 9.857,13.786c0,0 4.831,-12.328 4.084,-16.173c-0.365,-1.775 -1.399,-3.357 -2.887,-4.419c-3.194,-2.279 -7.659,-1.579 -9.892,1.55c-1.082,1.517 -1.504,3.414 -1.17,5.268l0.008,-0.012Z" style="fill:#f28979;fill-rule:nonzero;"/><path d="M47.215,220.906c2.714,2.862 15.72,6.386 15.72,6.386c0,0 -2.756,-13.094 -5.473,-15.958c-0.292,-0.295 -0.609,-0.565 -0.948,-0.807c-3.193,-2.278 -7.658,-1.579 -9.891,1.55c-1.904,2.667 -1.656,6.358 0.592,8.829Z" style="fill:#f17285;fill-rule:nonzero;"/><path d="M54.727,257.169c3.772,1.138 16.643,-2.32 16.643,-2.32c0,0 -8.999,-10.047 -12.769,-11.182c-2.955,-0.994 -6.203,0.034 -7.981,2.525c-2.233,3.129 -1.443,7.579 1.75,9.858c0.708,0.505 1.499,0.879 2.336,1.105l0.021,0.014Z" style="fill:#f28979;fill-rule:nonzero;"/><path d="M66.612,283.443c3.54,1.749 16.863,0.523 16.863,0.523c0,0 -7.188,-11.38 -10.725,-13.131c-3.123,-1.545 -6.906,-0.63 -8.89,2.15c-2.233,3.129 -1.443,7.579 1.75,9.858c0.318,0.227 0.653,0.428 1.002,0.6Z" style="fill:#f17285;fill-rule:nonzero;"/><path d="M77.713,225.51c-2.247,3.148 -14.58,8.138 -14.58,8.138c0,0 0.693,-13.288 2.937,-16.438c0.029,-0.044 0.059,-0.087 0.09,-0.129c2.233,-3.129 6.698,-3.829 9.891,-1.55c3.193,2.279 3.983,6.729 1.75,9.858c-0.03,0.042 -0.061,0.085 -0.092,0.127l0.004,-0.006Z" style="fill:#f28979;fill-rule:nonzero;"/><path d="M91.213,256.427c-3.105,2.319 -16.448,3.38 -16.448,3.38c0,0 4.676,-12.407 7.78,-14.749c2.44,-1.661 5.715,-1.604 8.161,0.142c3.193,2.279 3.983,6.729 1.75,9.858c-0.354,0.496 -0.773,0.942 -1.245,1.328l0.002,0.041Z" style="fill:#f17285;fill-rule:nonzero;"/><path d="M100.236,288.157c-2.654,2.818 -15.581,6.107 -15.581,6.107c0,0 2.475,-13.041 5.141,-15.851c2.41,-2.476 6.355,-2.797 9.223,-0.75c3.193,2.279 3.983,6.729 1.75,9.858c-0.16,0.225 -0.334,0.44 -0.521,0.644l-0.012,-0.008Z" style="fill:#f28979;fill-rule:nonzero;"/></g><g><ellipse cx="122.867" cy="309.421" rx="40.018" ry="5.105" style="fill:#515258;fill-opacity:0.1;"/><path d="M159.218,164.056c0,0 -10.086,-18.065 -8.385,-21.004c1.7,-2.94 2.953,-7.194 2.953,-7.194c0,0 3.724,-2.497 3.724,-3.516c0,-1.02 2.949,-3.379 4.503,-4.406c1.554,-1.026 0.775,-5.875 0,-6.462c-0.775,-0.587 -2.006,-2.644 -2.006,-2.644c0,0 1.077,-2.936 0,-3.819c-1.076,-0.882 0.158,-1.758 0,-2.644c-0.157,-0.886 0,-4.11 0,-4.11c-1.259,-1.716 -2.655,-2.517 -3.968,-2.813l-0.115,-0.464l-0.664,-2.739c0,0 3.23,-6.065 -2.009,-9.24c-0.371,-0.227 -0.758,-0.427 -1.159,-0.597c-0.401,-0.171 0,-0.148 -0.029,-0.398c-0.071,-0.907 -0.29,-3.164 -0.76,-4.644c-0.273,-0.851 -0.628,-1.424 -1.077,-1.294c-0.11,0.031 -0.211,0.088 -0.294,0.165c-0.213,0.19 -0.4,0.406 -0.556,0.643c-0.156,0.238 0,0 0,0c-0.006,0.015 -0.015,0.028 -0.025,0.039c-0.595,1.046 -1.012,2.18 -1.235,3.358c-0.159,0.696 -0.278,1.4 -0.358,2.11c-0.227,0.422 -0.427,0.857 -0.6,1.304c-0.635,1.614 -1.377,4.409 -0.025,6.476c1.149,1.758 2.695,4.174 3.818,5.932l0.036,0.056l0.068,0.109l-0.118,0.074l0,0.271l0.104,1.48l0.868,12.791c-0.261,-0.074 -0.527,-0.129 -0.796,-0.165c-0.384,-0.055 -0.772,-0.08 -1.159,-0.074c-0.757,-2.915 -2.835,-5.626 -3.23,-8.67c-0.038,-0.305 -0.058,-0.611 -0.061,-0.918c0.033,-1.916 0.521,-3.84 0.481,-5.752c0,-0.352 0,-0.703 -0.036,-1.055c0,-0.095 -0.018,-0.193 -0.028,-0.292c-0.399,-2.822 -2.196,-5.277 -4.798,-6.55c-0.9,-0.44 -1.876,-0.731 -2.752,-1.213c-2.023,-1.111 -3.319,-3.115 -5.156,-4.49c-1.367,-1.023 -3.409,-1.572 -4.933,-1.055c-0.809,0.12 -1.61,0.281 -2.401,0.485c-1.927,0.495 -3.776,1.247 -5.493,2.236c-0.233,0.138 -0.467,0.278 -0.689,0.44c-0.486,0.311 -0.871,0.751 -1.109,1.269c-0.154,0.439 -0.213,0.905 -0.172,1.368c0,0.334 0,0.675 0.021,1.009c-0.1,5.626 -6.286,9.978 -6.795,15.47c0,0.131 -0.022,0.261 -0.029,0.391l0,1.04c0.09,2.409 1.367,4.652 1.6,7.05c0.022,0.215 0.032,0.425 0.036,0.64c-0.04,1.102 -0.254,2.191 -0.635,3.228c-0.778,0.203 -1.526,0.5 -2.228,0.886c-1.88,1.185 -5.275,3.231 -6.513,7.144c-0.318,1.016 -0.476,2.074 -0.47,3.136c-0.021,3.756 -0.371,7.502 -1.047,11.199c-0.157,0.931 -0.377,1.851 -0.661,2.753c-0.026,0.088 -0.034,0.18 -0.021,0.271l-0.746,9.493l-0.133,1.67l-0.187,2.377c0,0 0.054,0.144 0.133,0.386c0.117,0.361 0.215,0.727 0.294,1.097c0.209,0.805 0.242,1.644 0.097,2.462c-0.074,0.347 -0.257,0.663 -0.524,0.903c-0.023,0.02 -0.043,0.043 -0.061,0.067c-0.211,0.292 -0.402,1.16 -0.567,2.419c-0.064,0.492 -0.125,1.055 -0.186,1.639c-0.359,3.744 -0.582,9.349 -0.718,13.983c-0.129,4.57 -0.176,8.181 -0.176,8.181c0.604,0.382 1.251,0.696 1.927,0.936c-0.05,0.123 -0.104,0.249 -0.154,0.383c-0.61,1.551 -1.004,3.176 -1.17,4.831c-0.301,3.456 0.685,7.296 5.605,9.272c0.314,0.128 0.636,0.236 0.965,0.323c1.076,0.281 1.869,0.204 2.454,-0.148c0,0.208 0.025,0.408 0.036,0.609c0.05,0.857 0.093,1.642 0.115,2.299c0.154,4.114 1.195,11.307 1.195,11.307c0,0 0.358,2.94 0.046,3.819c-0.312,0.879 0,4.405 0,4.405c0,0 1.077,1.758 0,2.644c-1.076,0.886 -1.395,5.274 -1.076,5.876c0.01,0.021 0.016,0.043 0.018,0.066c0.237,1.46 -1.102,23.139 -1.102,23.139c0,0 -1.266,3.319 -2.275,6.765c-0.983,3.354 -1.722,6.828 -0.81,7.478c0.452,0.324 1.503,0.567 2.838,0.753c0,0.144 -0.022,0.288 -0.036,0.436c-0.129,1.55 -0.334,3.221 -0.628,3.642c-0.427,0.598 -0.876,5.232 -1.094,7.736l-0.022,0.277c-0.46,1.069 -0.846,2.166 -1.155,3.284c-0.31,1.119 -3.434,8.439 -2.272,10.629c0.109,0.197 0.253,0.372 0.427,0.517c0.035,0.036 0.072,0.069 0.112,0.099c1.654,1.297 5.798,1.568 7.301,1.627l-0.057,2.089l0,0.077l1.955,0l0,-0.052c0,-0.264 0.044,-1.474 0.108,-3.091c0,-0.288 0.022,-0.591 0.036,-0.9c0,-0.243 0.025,-0.489 0.036,-0.742c0.576,-1.5 0.864,-3.091 0.85,-4.694c0.002,-1.839 0.256,-3.669 0.754,-5.443c0.246,-0.913 0.578,-1.802 0.994,-2.654c0.415,-0.853 0.61,-3.165 -0.241,-5.404c-0.162,-0.445 -0.405,-0.857 -0.717,-1.217l0,-0.703c-0.02,-1.515 0.135,-3.027 0.459,-4.508c-0.002,-0.023 -0.002,-0.046 0,-0.07c0.029,-0.123 0.061,-0.239 0.093,-0.351l0.022,-0.078l0.635,0.021c1.948,0.053 3.38,0.053 3.38,0.053c0,0 1.553,-7.784 1.399,-11.16l0,-0.457c-0.054,-3.354 0.94,-7.914 0.94,-7.914l1.252,-11.902c0,0 -0.62,-2.06 0,-3.516c0.384,-0.907 1.177,-2.591 1.73,-3.751c0.258,-0.538 0.463,-0.96 0.549,-1.143l0.05,-0.099c-0.196,-0.065 -0.381,-0.156 -0.552,-0.27c-0.506,-0.331 -0.958,-0.978 0.556,-1.931c2.328,-1.469 1.553,-5.14 1.553,-5.14c0,0 -0.685,-1.322 0.122,-2.496c0.808,-1.175 0,-5.58 0,-5.58c0.665,-1.165 1.2,-2.397 1.593,-3.674c0.578,-1.758 2.038,-10.355 2.727,-14.5c0.226,-1.361 0.359,-2.24 0.359,-2.24l0.022,0.214l0.021,0.232l0.194,1.959l0.025,0.26l0.359,3.702c0,0 0.718,9.733 0.269,13.547l0,0.071c-0.035,0.395 -0.123,0.784 -0.262,1.157c-0.825,1.828 -0.674,9.092 -0.631,10.699l0,0.323c0,0.088 -0.585,1.435 -0.438,2.482c0.03,0.266 0.127,0.52 0.283,0.739c0.215,0.342 0.312,0.743 0.277,1.143l0,0.035c-0.004,0.169 -0.019,0.338 -0.043,0.506c-0.109,0.681 -0.292,1.348 -0.546,1.99c-0.254,0.642 -0.832,2.145 -0.517,3.266c0.038,0.146 0.108,0.281 0.205,0.398c0.073,0.129 0.113,0.274 0.118,0.422c-0.001,0.012 -0.001,0.025 0,0.038c0.291,2.367 -0.459,12.813 -0.904,18.53c-0.179,2.257 -0.308,3.776 -0.308,3.776l-1.231,12.482l0.122,0.084c0.14,0.098 0.402,0.267 0.753,0.471l0,0.028l-0.053,0.376c-0.176,1.203 -0.413,2.602 -0.671,3.671c-0.022,0.081 -0.04,0.158 -0.061,0.232c-0.471,0.081 -0.92,0.257 -1.317,0.517c-2.612,4.546 -1.457,8.15 0,9.198c0.412,0.295 0.692,1.121 0.879,2.148l0.359,4.532l0,0.521c0,0.141 0.023,0.281 0.068,0.415l0.111,1.374l0.151,1.913l1.191,0l0,-2.317l0.065,0c1.88,0.063 4.912,0.141 6.232,0.039l0.036,0c0.14,0 0.258,-0.025 0.359,-0.039c0.071,-0.011 0.141,-0.029 0.208,-0.056c0.7,-0.331 2.443,-5.176 0.872,-6.276c-1.572,-1.101 -1.92,-4.22 -1.92,-4.22c-0.136,-0.407 -0.273,-0.794 -0.412,-1.163l0,-0.239c-0.043,-1.509 -0.026,-3.144 0.186,-4.03c0.237,-0.974 0.359,-3.02 0.409,-4.813l0,-0.405l0,-0.042c0.273,-0.067 0.54,-0.153 0.8,-0.256l0.058,-0.025c0.48,-0.197 0.931,-0.459 1.338,-0.777l4.392,-19.071l0.463,-2.218l2.637,-12.619c0,0 -0.929,-4.406 0,-5.137c0.341,-0.267 0.434,-1.407 0.413,-2.725c-0.036,-2.307 -0.413,-5.207 -0.413,-5.207c0,0 1.241,-1.909 1.866,-3.084c0.624,-1.174 0,-4.258 0,-4.258l1.223,-7.06c0,0 1.4,-8.371 4.812,-15.421c2.512,-5.186 0.911,-19.19 -0.718,-26.644c-0.043,-0.193 -0.086,-0.383 -0.129,-0.566l0,-0.028c0.768,-0.373 1.708,-0.823 2.713,-1.294l0.38,-0.176c1.274,-0.587 2.623,-1.192 3.832,-1.695l0.079,-0.031c0.87,-0.372 1.76,-0.699 2.666,-0.978c0.267,-0.08 0.541,-0.135 0.818,-0.165c2.157,-0.137 -4.363,-11.297 -4.363,-11.297Zm-48.55,23.891l0.646,0c-0.076,0.137 -0.148,0.278 -0.219,0.419c-0.043,0.084 -0.086,0.165 -0.126,0.249c-0.237,0.482 -0.456,0.974 -0.635,1.456c0.072,-0.52 0.161,-1.087 0.262,-1.691c0.025,-0.134 0.05,-0.292 0.072,-0.433Zm-1.744,9.166c0.001,-0.016 0.001,-0.032 0,-0.049l-0.054,-0.165c-0.039,-0.113 -0.075,-0.225 -0.111,-0.352c0.222,-0.065 0.448,-0.139 0.678,-0.221l0.047,0l0,0.116c-0.018,0.165 -0.04,0.33 -0.061,0.492c0.002,0.021 0.002,0.042 0,0.063c0,0.134 -0.033,0.261 -0.047,0.387c-0.032,0.253 -0.065,0.499 -0.093,0.735c-0.068,-0.221 -0.137,-0.439 -0.208,-0.654c-0.072,-0.116 -0.112,-0.236 -0.151,-0.352Z" style="fill:url(#_Linear1);fill-rule:nonzero;"/><path d="M155.497,107.702l-3.875,1.343l-1.406,-2.286c-1.077,-1.758 -2.57,-4.163 -3.671,-5.91c-1.945,-3.073 0.599,-7.756 0.599,-7.756c0,0 0.459,-4.701 2.096,-6.15c1.636,-1.448 2.091,6.15 2.091,6.15c6.57,2.925 3.05,9.806 3.05,9.806l0.639,2.728l0.477,2.075Z" style="fill:#f5c0a9;fill-rule:nonzero;"/><path d="M155.497,107.702l-3.875,1.343l-1.406,-2.286l0,-0.2c0,0 2.221,-1.494 4.811,-0.932l0.47,2.075Z" style="fill-opacity:0.1;fill-rule:nonzero;"/><path d="M149.24,123.102l1.941,-1.611l-0.973,-14.492c0,0 5.024,-3.369 8.741,1.902c0,0 -0.151,3.22 0,4.099c0.151,0.879 -1.044,1.758 0,2.634c1.044,0.875 0,3.808 0,3.808c0,0 1.18,2.049 1.927,2.633c0.746,0.584 1.496,5.418 0,6.441c-1.497,1.024 -4.302,3.369 -4.302,4.392c0,1.023 -3.588,3.516 -3.588,3.516l-3.151,-4.082l-0.595,-9.24Z" style="fill:#f17285;fill-rule:nonzero;"/><path d="M107.259,211.079c-7.241,-3.01 -5.633,-10.362 -4.27,-14.064c0.273,-0.75 0.593,-1.483 0.958,-2.194l4.062,-2.415c0,0 0.829,2.07 1.715,4.848c2.056,6.462 4.421,16.691 -2.465,13.825Z" style="fill:#f5c0a9;fill-rule:nonzero;"/><path d="M117.212,278.161c-0.49,0.936 -0.852,1.931 -1.076,2.96c-0.358,1.656 -0.515,3.347 -0.467,5.039c0.029,1.17 0.13,1.937 0.13,1.937l-8.066,5.436c0,0 0.046,-0.637 0.125,-1.572c0.208,-2.489 0.642,-7.109 1.052,-7.707c0.283,-0.415 0.48,-2.082 0.606,-3.629c0.125,-1.547 0.176,-2.904 0.176,-2.904c0,0 9.705,-3.565 7.52,0.44Z" style="fill:#f5c0a9;fill-rule:nonzero;"/><path d="M136.261,282.06c0,0 0,1.512 -0.057,3.27c-0.057,1.758 -0.165,3.832 -0.391,4.799c-0.208,0.886 -0.222,2.514 -0.183,4.015c0.054,1.758 0.183,3.341 0.183,3.341c0,0 -8.235,-7.63 -7.395,-8.235c0.226,-0.162 0.448,-0.812 0.653,-1.677c0.251,-1.055 0.477,-2.461 0.646,-3.657c0.201,-1.424 0.326,-2.57 0.326,-2.57l6.218,0.714Z" style="fill:#f5c0a9;fill-rule:nonzero;"/><path d="M117.212,278.161c-0.49,0.936 -0.852,1.931 -1.076,2.96c-2.208,-0.057 -4.411,-0.222 -6.602,-0.496c0.122,-1.512 0.176,-2.904 0.176,-2.904c0,0 9.687,-3.565 7.502,0.44Z" style="fill-opacity:0.1;fill-rule:nonzero;"/><path d="M136.261,282.06c0,0 0,1.512 -0.057,3.27c-2.569,0.643 -5.21,-0.644 -6.487,-1.407c0.201,-1.424 0.326,-2.57 0.326,-2.57l6.218,0.707Z" style="fill-opacity:0.1;fill-rule:nonzero;"/><path d="M153.122,207.275c-3.287,7.032 -4.632,15.372 -4.632,15.372l-1.195,7.032c0,0 0.599,3.073 0,4.243c-0.599,1.171 -1.794,3.077 -1.794,3.077c0,0 0.897,7.173 0,7.904c-0.897,0.731 0,5.123 0,5.123l-2.989,14.767l-4.184,19.028c-4.033,3.225 -9.401,-0.875 -9.401,-0.875l1.185,-12.443c0,0 1.794,-21.799 1.047,-22.692c-0.746,-0.893 0.298,-3.661 0.298,-3.661c0,0 1.048,-2.637 0.301,-3.66c-0.746,-1.023 0.148,-3.22 0.148,-3.22c0,0 -0.298,-8.931 0.599,-10.981c0.897,-2.05 0,-14.728 0,-14.728l-0.359,-3.949l-0.208,-2.187l-0.018,-0.214c0,0 -0.136,0.875 -0.359,2.232c-0.66,4.132 -2.067,12.693 -2.623,14.455c-0.378,1.269 -0.891,2.496 -1.532,3.66c-0.64,1.164 0.775,4.391 0,5.562c-0.775,1.171 -0.118,2.489 -0.118,2.489c0,0 0.746,3.661 -1.497,5.123c-2.242,1.463 0,2.198 0,2.198c0,0 -1.643,3.516 -2.239,4.975c-0.595,1.459 0,3.516 0,3.516l-1.194,11.856c0,0 -1.048,4.975 -0.897,8.343c0.15,3.369 -1.346,11.125 -1.346,11.125c0,0 -11.503,0 -13.276,-1.319c-1.772,-1.318 2.96,-14.18 2.96,-14.18c0,0 1.346,-22.544 1.045,-23.128c-0.302,-0.583 0,-4.978 1.047,-5.854c1.048,-0.875 0,-2.637 0,-2.637c0,0 -0.298,-3.516 0,-4.391c0.298,-0.876 -0.046,-3.808 -0.046,-3.808c0,0 -1.001,-7.173 -1.149,-11.273c-0.147,-4.099 -0.897,-13.318 -0.897,-13.318c0,0 0.783,-5.703 0.901,-8.417c0.043,-0.999 0.499,-2.247 1.076,-3.421c0.647,-1.326 1.39,-2.605 2.225,-3.826c0.835,-1.221 35.396,-10.253 36.882,-9.233c0.395,0.271 0.969,2.11 1.536,4.771c1.578,7.437 3.121,21.395 0.703,26.564Z" style="fill:#444053;fill-rule:nonzero;"/><ellipse cx="131.314" cy="107.702" rx="10.309" ry="10.101" style="fill:#a1616a;"/><path d="M152.419,180.718c-1.188,0.598 -1.985,1.009 -1.985,1.009c0,0 -16.731,7.76 -21.489,7.321c-3.681,-0.352 -13.078,-0.151 -17.172,-0.053c0.646,-1.326 1.39,-2.604 2.224,-3.825c0.835,-1.221 35.4,-10.25 36.886,-9.23c0.395,0.278 0.969,2.11 1.536,4.778Z" style="fill-opacity:0.1;fill-rule:nonzero;"/><path d="M124.141,123.833c0,0 -9.548,1.477 -11.801,2.925c-2.254,1.449 -6.717,4.248 -6.717,10.25c0,6.001 -1.044,12.151 -1.643,13.905c-0.6,1.755 9.411,15.956 9.411,15.956l-3.588,21.521c0,0 14.352,-0.439 19.132,0c4.779,0.44 21.503,-7.32 21.503,-7.32c0,0 9.86,-5.123 11.952,-5.274c2.092,-0.151 -4.184,-11.272 -4.184,-11.272c0,0 -9.713,-18.002 -8.069,-20.931c1.643,-2.929 2.849,-7.173 2.849,-7.173l-1.795,-14.929c0,0 -2.687,-0.879 -4.93,0.732c-2.242,1.61 -9.86,0.731 -9.86,0.731l-12.26,0.879Z" style="fill:#f17285;fill-rule:nonzero;"/><path d="M107.934,149.89l-3.746,1.023l-1.037,13.776c0,0 1.345,3.66 0,4.831c-1.346,1.171 -1.644,26.205 -1.644,26.205c0,0 4.335,3.073 9.412,0.731c0,0 -0.746,-2.781 1.496,-12.883c2.243,-10.101 2.239,-15.224 2.239,-15.224c0,0 0,-12.591 1.048,-14.64c1.047,-2.05 0,-7.173 0,-7.173c0,0 -2.092,-2.781 -1.945,-3.804c0.147,-1.024 -5.823,7.158 -5.823,7.158Z" style="fill-opacity:0.1;fill-rule:nonzero;"/><path d="M109.724,197.265c-2.199,0.725 -4.595,0.64 -6.735,-0.239c0.273,-0.751 0.593,-1.483 0.958,-2.194l4.062,-2.416c0,0 0.843,2.071 1.715,4.849Z" style="fill-opacity:0.1;fill-rule:nonzero;"/><path d="M107.708,149.89l-3.736,1.023l-1.044,13.776c0,0 1.346,3.66 0,4.831c-1.345,1.171 -1.643,26.205 -1.643,26.205c0,0 4.338,3.069 9.411,0.717c0,0 -0.746,-2.781 1.493,-12.883c2.239,-10.101 2.243,-15.224 2.243,-15.224c0,0 0,-12.591 1.044,-14.641c1.044,-2.049 0,-7.172 0,-7.172c0,0 -2.092,-2.781 -1.941,-3.804c0.15,-1.024 -5.827,7.172 -5.827,7.172Z" style="fill:#f17285;fill-rule:nonzero;"/><path d="M145.953,152.084c0,0 -1.941,16.395 -7.621,19.472c0,0 12.698,-3.513 7.621,-19.472Z" style="fill-opacity:0.1;fill-rule:nonzero;"/><path d="M117.42,153.55c0,0 7.019,3.365 5.383,5.707c-1.637,2.341 -5.383,-5.707 -5.383,-5.707Z" style="fill-opacity:0.1;fill-rule:nonzero;"/><path d="M117.42,160.283c0,0 4.482,4.54 3.589,6.15c-0.894,1.61 -3.589,-6.15 -3.589,-6.15Z" style="fill-opacity:0.1;fill-rule:nonzero;"/><path d="M153.57,122.662c0,0 1.759,2.926 1.927,4.831c0.169,1.906 -1.927,-4.831 -1.927,-4.831Z" style="fill-opacity:0.1;fill-rule:nonzero;"/><path d="M153.57,118.71c0,0 0.883,-0.735 3.136,0c2.254,0.735 -3.136,0 -3.136,0Z" style="fill-opacity:0.1;fill-rule:nonzero;"/><path d="M144.945,204.272c-3.702,0.515 -7.477,0.041 -10.926,-1.371l-1.884,4.725l-0.208,-2.187c0.309,-1.835 0.908,-3.8 2.092,-4.296c0,0 4.148,3.238 10.926,3.129Z" style="fill-opacity:0.1;fill-rule:nonzero;"/><path d="M114.299,210.421c0,0 9.189,1.867 11.765,1.537l-11.765,-1.537Z" style="fill-opacity:0.1;fill-rule:nonzero;"/><path d="M115.253,212.781c0,0 3.922,-0.166 5.881,0.604l-5.881,-0.604Z" style="fill-opacity:0.1;fill-rule:nonzero;"/><path d="M115.702,214.373c1.789,0.373 3.605,0.608 5.432,0.704l-5.432,-0.704Z" style="fill-opacity:0.1;fill-rule:nonzero;"/><path d="M115.476,234.52c0.168,-0.109 7.843,-1.867 8.798,-0.605l-8.798,0.605Z" style="fill-opacity:0.1;fill-rule:nonzero;"/><path d="M115.476,236.827c0,0 6.666,-0.77 6.835,0c0.169,0.77 -6.835,0 -6.835,0Z" style="fill-opacity:0.1;fill-rule:nonzero;"/><path d="M115.476,238.912c0,0 7.115,-1.442 7.954,-1.09c0.84,0.351 -7.954,1.09 -7.954,1.09Z" style="fill-opacity:0.1;fill-rule:nonzero;"/><path d="M115.813,288.1l-8.066,5.436c0,0 0.047,-0.636 0.126,-1.572c1.794,-4.324 4.129,-6.606 4.129,-6.606c1.82,-0.464 2.968,-0.035 3.682,0.805c0.029,1.167 0.129,1.937 0.129,1.937Z" style="fill-opacity:0.1;fill-rule:nonzero;"/><path d="M116.599,292.984c-1.14,2.548 -1.714,5.305 -1.683,8.087c0.045,2.281 -0.545,4.531 -1.708,6.508c-0.168,0.278 -0.358,0.544 -0.567,0.795c-0.209,0.25 -5.604,-0.046 -7.567,-1.639c-0.221,-0.171 -0.401,-0.387 -0.528,-0.633c-1.123,-2.194 2.186,-10.593 2.186,-10.593c1.736,-6.477 5.263,-9.937 5.263,-9.937c6.283,-1.592 4.604,7.412 4.604,7.412Z" style="fill:#444053;fill-rule:nonzero;"/><path d="M113.208,307.561c-0.168,0.279 -0.358,0.545 -0.567,0.795c-0.209,0.25 -5.604,-0.046 -7.567,-1.638c0.965,-3.13 4.044,-12.598 5.486,-10.988c1.356,1.512 2.3,8.787 2.648,11.831Z" style="fill-opacity:0.1;fill-rule:nonzero;"/><path d="M112.44,296.317l-0.391,14.184l1.88,0c0,0 0.305,-12.443 1.145,-14.184c0.839,-1.74 -2.634,0 -2.634,0Z" style="fill:#444053;fill-rule:nonzero;"/><path d="M135.813,297.485c0,0 -8.235,-7.63 -7.395,-8.235c0.226,-0.162 0.448,-0.812 0.653,-1.677c1.582,-0.271 4.306,0.376 6.559,6.571c0.054,1.758 0.183,3.341 0.183,3.341Z" style="fill-opacity:0.1;fill-rule:nonzero;"/><path d="M137.044,305.993c-0.063,0.027 -0.13,0.046 -0.198,0.057c-0.968,0.165 -4.539,0.07 -6.537,0c-0.757,-0.025 -1.366,-0.641 -1.367,-1.382c0,-0.528 0,-1.171 -0.043,-1.857c-0.094,-2.166 -0.359,-4.743 -1.152,-5.323c-1.403,-1.055 -2.512,-4.634 0,-9.166c0,0 4.815,-3.604 8.288,7.229c0,0 0.338,3.09 1.848,4.187c1.511,1.097 -0.165,5.942 -0.839,6.255Z" style="fill:#444053;fill-rule:nonzero;"/><path d="M136.839,306.05c-0.969,0.165 -4.539,0.07 -6.537,0c-0.757,-0.025 -1.366,-0.641 -1.367,-1.382c0,-0.528 0,-1.171 -0.043,-1.857c0.606,-2.623 1.478,-5.323 2.601,-5.938c0.007,-0.004 3.405,-0.38 5.346,9.177Z" style="fill-opacity:0.1;fill-rule:nonzero;"/><path d="M128.357,296.553l0.904,11.803l1.148,0l0,-12.809l-2.052,1.006Z" style="fill:#444053;fill-rule:nonzero;"/><path d="M131.163,91.605c-3.255,0.238 -6.406,1.23 -9.193,2.894c-0.717,0.426 -1.435,0.942 -1.733,1.705c-0.258,0.661 -0.151,1.407 -0.14,2.11c0.097,6.055 -6.792,10.636 -6.577,16.687c0.086,2.401 1.317,4.638 1.543,7.032c0.377,3.994 -2.034,7.668 -4.345,10.977c2.38,0.142 4.726,-0.62 6.548,-2.127c2.438,7.963 2.753,16.407 0.915,24.524l3.305,0c0.326,-0.024 0.654,0.016 0.965,0.116c0.29,0.135 0.55,0.325 0.764,0.559c3.09,3.013 5.16,7.468 3.979,11.581l7.033,-2.584c1.683,-0.619 3.391,-1.248 4.855,-2.268c1.464,-1.019 2.691,-2.499 2.999,-4.236c0.191,-1.055 0.13,-2.314 1.016,-2.926c0.436,-0.227 0.902,-0.396 1.385,-0.502c1.93,-0.668 2.784,-2.855 3.179,-4.824c0.48,-2.416 0.631,-4.884 0.448,-7.338c-0.312,-4.114 -1.553,-8.291 -0.531,-12.306c0.578,-2.254 1.863,-4.353 1.967,-6.681c0.168,-3.836 -2.892,-7.141 -3.348,-10.955c-0.319,-2.659 0.66,-5.348 0.341,-8.006c-0.36,-2.782 -2.086,-5.223 -4.618,-6.53c-0.865,-0.436 -1.794,-0.727 -2.648,-1.209c-1.948,-1.108 -3.194,-3.101 -4.962,-4.472c-1.769,-1.372 -4.715,-1.889 -6.046,-0.106l2.899,-1.115Z" style="fill-opacity:0.1;fill-rule:nonzero;"/><path d="M131.163,91.166c-3.255,0.237 -6.406,1.229 -9.193,2.894c-0.717,0.425 -1.435,0.942 -1.733,1.705c-0.258,0.661 -0.151,1.406 -0.14,2.11c0.097,6.054 -6.792,10.635 -6.577,16.69c0.086,2.398 1.317,4.634 1.543,7.032c0.377,3.994 -2.034,7.668 -4.345,10.98c2.379,0.137 4.724,-0.624 6.548,-2.127c2.438,7.961 2.753,16.403 0.915,24.517l3.305,0c0.326,-0.022 0.654,0.019 0.965,0.12c0.291,0.132 0.551,0.321 0.764,0.555c3.09,3.017 5.16,7.468 3.979,11.582l7.033,-2.584c1.683,-0.619 3.391,-1.248 4.855,-2.268c1.464,-1.02 2.691,-2.5 2.999,-4.237c0.191,-1.055 0.13,-2.313 1.016,-2.925c0.436,-0.228 0.902,-0.397 1.385,-0.503c1.93,-0.668 2.784,-2.855 3.179,-4.824c0.485,-2.417 0.639,-4.887 0.459,-7.345c-0.312,-4.114 -1.554,-8.291 -0.531,-12.306c0.578,-2.254 1.862,-4.353 1.966,-6.68c0.169,-3.836 -2.892,-7.141 -3.347,-10.956c-0.32,-2.658 0.66,-5.344 0.341,-8.006c-0.361,-2.781 -2.087,-5.222 -4.618,-6.529c-0.865,-0.436 -1.794,-0.728 -2.648,-1.206c-1.949,-1.111 -3.194,-3.105 -4.963,-4.476c-1.769,-1.371 -4.714,-1.888 -6.046,-0.105l2.889,-1.108Z" style="fill:#876363;fill-rule:nonzero;"/><g opacity="0.1"><path d="M120.09,96.412c-0.014,0.135 -0.022,0.271 -0.022,0.408c0.011,-0.134 0.018,-0.271 0.022,-0.408Z" style="fill-rule:nonzero;"/><path d="M146.168,110.486c0.129,-1.863 0.553,-3.734 0.395,-5.59c-0.119,1.863 -0.542,3.734 -0.395,5.59Z" style="fill-rule:nonzero;"/><path d="M115.063,119.751c-0.208,-2.18 -1.245,-4.219 -1.489,-6.396c-0.049,0.399 -0.067,0.801 -0.054,1.203c0.086,2.373 1.288,4.592 1.532,6.955c0.06,-0.586 0.063,-1.176 0.011,-1.762Z" style="fill-rule:nonzero;"/><path d="M147.603,128.411c-0.336,1.431 -0.456,2.902 -0.358,4.367c0.035,-0.855 0.156,-1.704 0.358,-2.535c0.578,-2.254 1.863,-4.353 1.967,-6.681c0.017,-0.413 -0.003,-0.827 -0.058,-1.237c-0.28,2.092 -1.396,4.04 -1.909,6.086Z" style="fill-rule:nonzero;"/><path d="M117.266,128.601c-1.496,1.229 -3.349,1.967 -5.296,2.109c-0.409,0.626 -0.832,1.238 -1.252,1.843c2.379,0.137 4.724,-0.625 6.548,-2.127c1.311,4.274 2.014,8.705 2.088,13.167c0.107,-5.074 -0.598,-10.132 -2.088,-14.992Z" style="fill-rule:nonzero;"/><path d="M147.672,148.041c-0.395,1.969 -1.249,4.156 -3.179,4.82c-0.484,0.106 -0.95,0.276 -1.385,0.506c-0.887,0.612 -0.826,1.878 -1.016,2.926c-0.308,1.737 -1.532,3.213 -3,4.219c-1.467,1.006 -3.171,1.652 -4.854,2.271l-6.71,2.461c-0.035,0.661 -0.143,1.315 -0.323,1.952l7.033,-2.584c1.683,-0.619 3.391,-1.249 4.854,-2.268c1.464,-1.02 2.692,-2.5 3,-4.237c0.19,-1.055 0.129,-2.314 1.016,-2.925c0.436,-0.228 0.902,-0.397 1.385,-0.503c1.93,-0.668 2.784,-2.855 3.179,-4.824c0.408,-2.049 0.578,-4.137 0.505,-6.223c-0.047,1.48 -0.216,2.955 -0.505,4.409Z" style="fill-rule:nonzero;"/><path d="M123.226,153.789c-0.214,-0.235 -0.474,-0.425 -0.764,-0.559c-0.311,-0.099 -0.639,-0.14 -0.965,-0.119l-2.932,0c-0.115,0.612 -0.237,1.223 -0.359,1.832l3.305,0c0.326,-0.023 0.654,0.018 0.965,0.119c0.291,0.133 0.551,0.322 0.764,0.556c2.261,2.208 3.972,5.182 4.267,8.234c0.362,-3.649 -1.568,-7.405 -4.281,-10.063Z" style="fill-rule:nonzero;"/></g><path d="M106.832,165.772c0,0 2.67,-1.097 3.265,0c0.596,1.097 -3.265,0 -3.265,0Z" style="fill-opacity:0.1;fill-rule:nonzero;"/><path d="M107.776,167.653c0,0 2.669,-1.097 3.268,0c0.6,1.097 -3.268,0 -3.268,0Z" style="fill-opacity:0.1;fill-rule:nonzero;"/></g><path d="M295.228,143.842c-2.817,0 -5.135,2.271 -5.135,5.031c0,2.76 2.318,5.032 5.135,5.032c2.817,0 5.134,-2.272 5.134,-5.032c-0.007,-2.757 -2.32,-5.023 -5.134,-5.031Zm25.278,0c-2.815,0.002 -5.131,2.272 -5.131,5.031c0,2.76 2.318,5.032 5.134,5.032c2.817,0 5.135,-2.272 5.135,-5.032c-0.008,-2.758 -2.323,-5.025 -5.138,-5.031Zm-29.505,-34.45l38.001,0c0.034,-0.001 0.068,-0.002 0.101,-0.002c1.344,0 2.454,1.076 2.469,2.393c0.01,0.433 -0.079,0.863 -0.259,1.259l-9.246,15.579c-0.872,1.634 -2.611,2.656 -4.493,2.641l-19.128,0l-2.565,3.969c-0.114,0.199 -0.205,0.408 -0.273,0.626c-0.001,0.012 -0.001,0.024 -0.001,0.036c0,0.326 0.274,0.595 0.606,0.595c0.013,0 0.025,-0.001 0.037,-0.002l29.394,0l0,4.838l-30.021,0c-3.187,0 -5.537,-1.663 -5.537,-5.031c-0.001,-0.838 0.221,-1.662 0.642,-2.391l3.865,-6.163l-9.243,-18.347l-5.135,0l0,-5.031l8.346,0l2.44,5.031Zm18.629,4.669l-3.229,0l0,4.22l-4.306,0l0,3.164l4.306,0l0,4.219l3.229,0l0,-4.219l4.306,0l0,-3.164l-4.306,0l0,-4.22Z" style="fill:#555;fill-rule:nonzero;"/></g><defs><linearGradient id="_Linear1" x1="0" y1="0" x2="1" y2="0" gradientUnits="userSpaceOnUse" gradientTransform="matrix(1.40267e-14,-224.472,229.074,1.37449e-14,132.049,310.501)"><stop offset="0" style="stop-color:#808080;stop-opacity:0.25"/><stop offset="0.54" style="stop-color:#808080;stop-opacity:0.12"/><stop offset="1" style="stop-color:#808080;stop-opacity:0.1"/></linearGradient></defs></svg>