<?xml version="1.0" encoding="UTF-8" standalone="no"?><!DOCTYPE svg PUBLIC "-//W3C//DTD SVG 1.1//EN" "http://www.w3.org/Graphics/SVG/1.1/DTD/svg11.dtd"><svg width="100%" height="100%" viewBox="0 0 391 267" version="1.1" xmlns="http://www.w3.org/2000/svg" xmlns:xlink="http://www.w3.org/1999/xlink" xml:space="preserve" xmlns:serif="http://www.serif.com/" style="fill-rule:evenodd;clip-rule:evenodd;stroke-linejoin:round;stroke-miterlimit:2;"><g><path d="M387.595,108.889c-0.07,0.417 -0.141,0.834 -0.219,1.25c-2.523,14.191 -6.641,27.871 -12.765,40.432c-0.201,0.417 -0.406,0.833 -0.614,1.25c-3.931,7.92 -8.757,15.363 -14.384,22.182c-3.051,3.68 -6.377,7.174 -10.332,9.696c-5.544,3.535 -12.025,4.971 -18.395,6.147c-6.619,1.224 -13.323,2.232 -20.013,3.348c-2.371,0.387 -4.728,0.793 -7.069,1.217c-6.463,1.168 -12.877,2.519 -19.139,4.308c-7.742,2.233 -15.254,5.109 -22.323,9.183c-0.566,0.322 -1.125,0.653 -1.678,0.993c-0.555,0.335 -1.116,0.677 -1.656,1.027c-0.539,0.35 -1.083,0.696 -1.618,1.049l-0.826,0.558c-0.272,0.179 -0.54,0.372 -0.808,0.551c-0.796,0.543 -1.581,1.116 -2.366,1.667l-0.03,0.022c-0.517,0.372 -1.03,0.744 -1.544,1.116c-2.898,2.147 -5.733,4.394 -8.557,6.649l-1.782,1.425c-0.921,0.729 -1.841,1.457 -2.761,2.184c-0.54,0.428 -1.086,0.852 -1.63,1.276c-0.394,0.309 -0.785,0.618 -1.187,0.923c-2.012,1.551 -4.051,3.069 -6.131,4.52c-0.495,0.346 -0.997,0.692 -1.488,1.031c-4.164,2.848 -8.592,5.287 -13.223,7.285l-0.06,0.026c-2.281,0.972 -4.629,1.782 -7.024,2.422c-1.373,0.372 -2.746,0.666 -4.138,0.897c-3.707,0.641 -7.49,0.706 -11.217,0.193c-7.326,-1.038 -14.191,-4.465 -21.498,-5.611c-15.076,-2.34 -29.716,5.209 -43.903,11.136c-3.472,1.454 -6.983,2.818 -10.533,4.093c-2.351,0.848 -4.714,1.655 -7.087,2.422c-14.462,4.677 -29.363,7.865 -44.473,9.513c-6.168,0.674 -12.601,0.994 -18.882,0.51c-2.371,-0.174 -4.731,-0.481 -7.069,-0.919c-7.951,-1.488 -15.373,-4.647 -21.352,-10.418c-4.967,-4.721 -8.472,-10.893 -11.143,-17.334c-1.074,-2.587 -2.021,-5.233 -2.839,-7.939c-1.287,-4.242 -2.253,-8.573 -2.891,-12.959c-0.145,-0.99 -0.275,-1.983 -0.372,-2.977c-0.194,-1.704 -0.338,-3.415 -0.432,-5.134c-0.521,-9.136 0.372,-18.297 2.646,-27.16c2.533,-9.819 6.76,-19.221 8.62,-29.133c0.078,-0.416 0.149,-0.833 0.22,-1.25c0.248,-1.488 0.436,-3.004 0.565,-4.546c0.938,-12.122 -2.69,-23.987 -5.555,-35.871c-0.1,-0.416 -0.201,-0.833 -0.297,-1.25c-0.31,-1.317 -0.604,-2.635 -0.882,-3.955c-2.653,-12.568 -3.378,-26.018 -1.023,-38.56c0.074,-0.417 0.16,-0.837 0.245,-1.25c1.589,-7.769 4.394,-15.158 8.692,-21.739c4.409,-6.757 10.198,-12.379 16.37,-17.32c3.014,-2.406 6.131,-4.657 9.35,-6.753c2.314,-1.503 4.671,-2.925 7.069,-4.267c19.381,-10.79 41.492,-16.062 63.354,-14.883c1.159,0.06 2.315,0.139 3.468,0.239c1.21,0.104 2.417,0.228 3.62,0.372c14.075,1.626 27.771,5.655 41.384,10.064c4.562,1.488 9.112,2.976 13.662,4.465c2.024,0.659 4.047,1.31 6.069,1.953c9.915,3.129 19.994,5.953 30.166,8.081c2.359,0.496 4.715,0.949 7.069,1.358c8.184,1.466 16.465,2.319 24.776,2.552c3.224,0.08 6.449,0.046 9.673,-0.1c1.63,-0.075 3.261,-0.184 4.893,-0.328c16.858,-1.443 33.113,-6.284 49.435,-10.83c2.359,-0.659 4.722,-1.314 7.069,-1.946c3.103,-0.833 6.21,-1.641 9.328,-2.385c19.414,-4.662 36.715,-1.983 54.763,7.631c4.093,2.184 8.186,4.818 10.716,8.896c2.53,4.078 3.143,9.126 3.612,13.986c0.663,6.912 1.116,13.922 1.262,20.961c0,0.417 0,0.834 0.026,1.251c0.327,14.253 -0.54,28.615 -2.914,42.507Z" style="fill:#e7ede7;fill-rule:nonzero;"/><path d="M258.829,150.571l-1.268,0l0,1.25l1.436,0l-0.168,-1.25Zm-14.38,0c-0.001,0.01 -0.001,0.02 0,0.03l-0.111,1.034l0,0.186l11.013,0l0,-0.074l0.785,-1.176l-11.687,0Zm-29.448,0l0,-40.432l12.65,0c-0.134,-0.111 -0.272,-0.223 -0.413,-0.327l-0.186,-0.141c-0.078,-0.064 -0.156,-0.123 -0.238,-0.179c-0.082,-0.056 -0.276,-0.197 -0.421,-0.294c-0.145,-0.097 -0.234,-0.16 -0.372,-0.238l-0.085,-0.056l-0.019,0l-10.916,0l0,-2.214l-0.294,0.142l-0.313,0.175l-0.022,0l-0.067,0.041l-0.193,0.126c-0.067,0.041 -0.134,0.082 -0.198,0.127c-0.193,0.13 -0.372,0.271 -0.576,0.416l-0.186,0.149c-0.127,0.097 -0.246,0.197 -0.372,0.298c-0.495,0.405 -0.983,0.829 -1.489,1.22c-0.126,0.101 -0.253,0.197 -0.372,0.29c-0.27,0.198 -0.551,0.382 -0.84,0.551c-0.121,0.075 -0.245,0.143 -0.373,0.205l-0.208,0.096l-0.19,0.082c-0.447,0.189 -0.91,0.336 -1.384,0.439l0,39.524l-18.975,0c0,0.045 0.026,0.086 0.038,0.13c0.104,0.372 0.208,0.744 0.308,1.116l18.633,0l0,43.342l0.29,0l0.331,0.022l0.603,0.045l0.975,0.096l0.439,0.052l0.484,0.06l0.07,0c0.279,0.037 0.562,0.082 0.849,0.126l0.182,0.03l0.409,0.067l0.588,0.104l1.41,-0.074l0.194,0.041c0.078,0 0.156,0.03 0.238,0.048l0,-43.955l29.322,0l0,-0.093l0,-0.093l0.111,-1.034c-0.001,-0.01 -0.001,-0.02 0,-0.03l-29.422,0Zm43.828,0l-1.268,0l0,1.25l1.436,0l-0.168,-1.25Zm-15.172,0l-0.127,1.25l12.252,0l0.834,-1.25l-12.959,0Zm-28.649,0l0,-40.432l12.65,0c-0.134,-0.111 -0.271,-0.223 -0.413,-0.327l-0.186,-0.141c-0.078,-0.064 -0.156,-0.123 -0.238,-0.179c-0.082,-0.056 -0.275,-0.197 -0.42,-0.294c-0.145,-0.097 -0.235,-0.16 -0.372,-0.238l-0.086,-0.056l-0.026,0l-10.916,0l0,-2.214l-0.294,0.142l-0.313,0.175l-0.022,0l-0.067,0.041l-0.193,0.126c-0.067,0.041 -0.134,0.082 -0.198,0.127c-0.193,0.13 -0.372,0.271 -0.576,0.416l-0.186,0.149c-0.127,0.097 -0.246,0.197 -0.372,0.298c-0.495,0.405 -0.983,0.829 -1.489,1.22c-0.126,0.101 -0.253,0.197 -0.372,0.29c-0.27,0.198 -0.551,0.382 -0.84,0.551c-0.121,0.075 -0.245,0.143 -0.373,0.205l-0.208,0.096l-0.19,0.082c-0.447,0.189 -0.91,0.336 -1.384,0.439l0,39.524l-18.975,0c0,0.045 0.026,0.086 0.038,0.13c0.104,0.372 0.212,0.744 0.312,1.116l18.629,0l0,43.338l0.29,0.018l0.331,0.023l0.603,0.044l0.975,0.097l0.439,0.052l0.484,0.06l0.07,0c0.279,0.037 0.562,0.082 0.849,0.126l0.182,0.03l0.409,0.067l0.588,0.104l1.41,-0.074l0.194,0.041c0.078,0 0.156,0.03 0.238,0.048l0,-43.97l28.54,0l0.134,-1.25l-28.656,0Zm95.865,-84.197l79.706,0c0,-0.417 0,-0.833 -0.026,-1.25l-79.68,0l0,-49.09c-2.366,0.633 -4.729,1.288 -7.069,1.946l0,47.144l-86.69,0l-0.219,-0.238l0.331,-0.372l32.242,-35.387c-3.224,0.149 -6.449,0.183 -9.673,0.101l-24.794,27.197l0,-29.738c-2.366,-0.41 -4.723,-0.862 -7.069,-1.358l0,29.727l-36.25,-39.762c-4.55,-1.488 -9.101,-3.002 -13.662,-4.465l49.272,54.057l-0.22,0.238l-90.436,0l0,-64.366c-1.206,-0.137 -2.412,-0.261 -3.62,-0.372c-1.154,-0.102 -2.309,-0.181 -3.468,-0.238l0,64.976l-63.354,0l0,-50.079c-2.404,1.339 -4.76,2.762 -7.069,4.267l0,45.812l-34.457,0c-0.085,0.413 -0.171,0.833 -0.245,1.25l34.672,0l0,42.515l-32.752,0c0.096,0.417 0.197,0.834 0.297,1.25l32.47,0l0,40.432l-27.491,0c-0.071,0.417 -0.142,0.833 -0.22,1.25l27.711,0l0,113.05c2.337,0.438 4.697,0.745 7.069,0.919l0,-113.969l63.369,0l0,103.946c2.376,-0.771 4.739,-1.579 7.088,-2.422l0,-101.524l91.281,0l0,90.82c2.396,-0.641 4.743,-1.45 7.024,-2.422l0.06,-0.026l0,-88.372l88.781,0l0,42.59c2.354,-0.424 4.71,-0.83 7.069,-1.217l0,-41.373l63.127,0c0.208,-0.417 0.413,-0.833 0.614,-1.25l-63.719,0l0,-40.432l76.507,0c0.078,-0.416 0.148,-0.833 0.219,-1.25l-76.726,0l0,-42.515Zm-264.675,0l63.35,0l0,42.515l-63.354,0l0.004,-42.515Zm0,84.197l0,-40.432l63.35,0l0,40.432l-63.35,0Zm70.442,-84.197l91.277,0l0,42.515l-91.281,0l0.004,-42.515Zm0,84.197l0,-40.432l91.277,0l0,40.432l-91.277,0Zm187.145,0l-88.784,0l0,-40.432l88.781,0l0.003,40.432Zm0,-41.671l-88.784,0l0,-41.387l1.246,-1.139l87.535,0l0.003,42.526Zm-59.332,41.671c-0.002,0.01 -0.002,0.02 0,0.03l-0.112,1.034l0,0.186l11.013,0l0,-0.074l0.785,-1.176l-11.686,0Zm14.38,0l-1.269,0l0,1.25l1.437,0l-0.168,-1.25Zm-43.828,0l0,-40.432l12.65,0c-0.134,-0.111 -0.272,-0.223 -0.413,-0.327l-0.186,-0.141c-0.079,-0.064 -0.157,-0.123 -0.239,-0.179c-0.081,-0.056 -0.275,-0.197 -0.42,-0.294c-0.145,-0.097 -0.234,-0.16 -0.372,-0.238l-0.086,-0.056l-0.018,0l-10.92,0l0,-2.214l-0.294,0.142l-0.313,0.175l-0.022,0l-0.067,0.041l-0.193,0.126c-0.067,0.041 -0.134,0.082 -0.198,0.127c-0.193,0.13 -0.372,0.271 -0.576,0.416l-0.186,0.149c-0.127,0.097 -0.246,0.197 -0.372,0.298c-0.495,0.405 -0.983,0.829 -1.489,1.22c-0.126,0.101 -0.253,0.197 -0.372,0.29c-0.27,0.198 -0.551,0.382 -0.84,0.551c-0.121,0.075 -0.245,0.143 -0.373,0.205l-0.208,0.096l-0.19,0.082c-0.447,0.189 -0.91,0.336 -1.384,0.439l0,39.524l-18.975,0c0,0.045 0.026,0.086 0.038,0.13c0.104,0.372 0.208,0.744 0.308,1.116l18.633,0l0,43.342l0.29,0l0.331,0.022l0.603,0.045l0.975,0.096l0.439,0.052l0.484,0.06l0.07,0c0.279,0.037 0.562,0.082 0.849,0.126l0.182,0.03l0.409,0.067l0.588,0.104l1.41,-0.074l0.194,0.041c0.078,0 0.156,0.03 0.238,0.048l0,-43.955l29.322,0l0,-0.093l0,-0.093l0.111,-1.034c-0.001,-0.01 -0.001,-0.02 0,-0.03l-29.418,0Z" style="fill:#515258;fill-opacity:0.08;fill-rule:nonzero;"/><path d="M76.654,37.1l0.566,0c-0.393,-0.227 -0.646,-0.637 -0.673,-1.09c0,-0.863 1.056,-1.566 2.347,-1.566l16.427,0c1.291,0 2.347,0.703 2.347,1.566c0,0.86 -1.056,1.567 -2.347,1.567l-0.547,0c0.39,0.228 0.642,0.638 0.669,1.09c0,0.744 -0.766,1.354 -1.793,1.522l4.729,0c1.287,0 2.344,0.703 2.344,1.566c0,0.863 -1.057,1.563 -2.344,1.563l-16.445,0c-1.287,0 -2.344,-0.704 -2.344,-1.563c0,-0.744 0.766,-1.354 1.793,-1.522l-4.729,0c-1.287,0 -2.344,-0.703 -2.344,-1.566c0,-0.863 1.05,-1.567 2.344,-1.567Z" style="fill:#adbda9;fill-rule:nonzero;"/><path d="M254.692,52.009l0.551,0c-0.393,-0.229 -0.647,-0.64 -0.674,-1.094c0,-0.859 1.057,-1.563 2.348,-1.563l16.426,0c1.292,0 2.348,0.704 2.348,1.563c0,0.863 -1.056,1.566 -2.348,1.566l-0.546,0c0.391,0.23 0.642,0.641 0.669,1.094c0,0.744 -0.766,1.351 -1.793,1.518l4.729,0c1.287,0 2.344,0.707 2.344,1.567c0,0.859 -1.057,1.566 -2.344,1.566l-16.423,0c-1.287,0 -2.344,-0.703 -2.344,-1.566c0,-0.745 0.767,-1.355 1.793,-1.518l-4.736,0c-1.287,0 -2.344,-0.707 -2.344,-1.567c0,-0.859 1.064,-1.566 2.344,-1.566Z" style="fill:#adbda9;fill-rule:nonzero;"/><path d="M51.455,115.806l0.551,0c-0.392,-0.23 -0.643,-0.641 -0.67,-1.094c0,-0.859 1.053,-1.566 2.344,-1.566l16.426,0c1.291,0 2.348,0.707 2.348,1.566c0,0.863 -1.057,1.566 -2.348,1.566l-0.547,0c0.392,0.23 0.643,0.641 0.67,1.094c0,0.744 -0.766,1.351 -1.793,1.518l4.729,0c1.291,0 2.343,0.703 2.343,1.567c0,0.863 -1.052,1.566 -2.343,1.566l-16.431,0c-1.287,0 -2.344,-0.707 -2.344,-1.566c0,-0.745 0.771,-1.355 1.794,-1.522l-4.729,0c-1.287,0 -2.344,-0.703 -2.344,-1.563c0,-0.859 1.057,-1.566 2.344,-1.566Z" style="fill:#adbda9;fill-rule:nonzero;"/><path d="M241.432,222.974c-0.92,0.729 -1.84,1.457 -2.761,2.184c-0.539,0.428 -1.086,0.852 -1.629,1.276c-0.395,0.309 -0.785,0.618 -1.187,0.923c-2.013,1.551 -4.052,3.069 -6.132,4.52c-0.495,0.346 -0.997,0.692 -1.488,1.031c-4.163,2.847 -8.591,5.287 -13.223,7.285l-0.059,0.026l0,-17.245l26.479,0Z" style="fill:#65617d;fill-rule:nonzero;"/><path d="M282.835,155.199l0.416,-12.854c-0.249,-0.194 -0.502,-0.372 -0.744,-0.551c0.103,-3.832 -0.116,-7.667 -0.655,-11.463c-1.681,-12.855 -12.601,-13.134 -15.682,-10.481c-0.408,0.352 -0.853,0.659 -1.328,0.915c0.279,-1.834 0.625,-3.672 0.874,-5.487c1.347,-9.793 -0.744,-20.81 -8.341,-27.138c-3.181,-2.646 -7.069,-4.272 -10.563,-6.485c-6.258,-3.948 -11.203,-9.778 -17.531,-13.622c-6.329,-3.843 -15.218,-5.283 -20.739,-0.342c-2.139,1.913 -3.52,4.565 -5.715,6.411c-4.093,3.438 -10.473,3.665 -14.045,7.504c-0.179,0.194 -0.35,0.391 -0.514,0.599c-2.976,3.818 -2.161,9.231 -1.212,13.967c1.142,5.7 0.669,10.269 5.558,11.906c0.019,0.227 0.034,0.454 0.06,0.677c0.804,7.074 4.697,13.442 10.626,17.383l-0.793,0.283c-2.113,0.744 -4.014,1.466 -5.231,1.96c-4.465,1.82 -13.863,4.19 -13.863,4.19c0,0 -0.223,2.679 -0.182,6.63c-3.133,3.404 -8.36,9.387 -9.897,12.933c-2.232,5.171 -14.845,19.983 -18.205,22.219c-3.36,2.236 -7.002,4.889 -7.002,4.889c0,0 -5.32,2.935 -7.839,3.215c-1.745,0.193 -7.144,-0.841 -7.144,-0.841c0,0 -21.561,-26.417 -20.162,-6.147c1.399,20.27 18.622,20.958 18.622,20.958l17.364,-0.279c0,0 9.383,1.258 13.584,-2.232c3.586,-2.977 22.174,-19.306 28.146,-26.714c0.138,0.153 0.275,0.301 0.42,0.447c0,0 2.378,-3.074 2.661,0c0.282,3.073 -1.544,4.464 -0.562,5.58c0.982,1.117 3.921,5.031 4.059,6.567c0.138,1.537 -3.918,7.814 2.939,12.576c0.108,0.074 0.224,0.145 0.35,0.216c1.224,2.786 5.116,5.514 5.116,5.514l21.003,-0.279l39.628,3.073c0,0 1.179,-1.038 2.775,-2.735c2.132,1.957 5.09,3.635 8.424,2.605c0,0 4.762,-5.726 4.903,-9.499c0,0 -3.08,-7.966 -4.464,-10.34c-1.384,-2.373 0.982,-7.545 0.982,-7.545c0,0 1.678,-5.03 2.66,-5.03c0.982,0 0.279,-3.349 0.279,-3.349c-0.753,-1.11 -0.911,-2.524 -0.42,-3.772c0.822,-2.117 1.384,-6.032 1.384,-6.032Z" style="fill:url(#_Linear1);fill-rule:nonzero;"/><path d="M259.079,152.305l-1.489,1.741l-6.012,7.002l-7.854,0.476l-12.572,0.774c0,0 -16.951,-20.426 -13.766,-24.872c1.157,-1.603 1.347,-3.72 1.116,-5.718c-0.03,-0.276 -0.071,-0.551 -0.119,-0.823c-0.381,-2.114 -1.047,-4.166 -1.979,-6.101l0.416,-0.19l0.268,-0.123l14.823,-6.764l3.668,-1.674c0.183,1.011 0.522,1.988 1.005,2.894c0.071,0.142 0.149,0.283 0.231,0.417c5.056,8.371 21.27,3.077 21.27,3.077l0.994,29.884Z" style="fill:#f5c0a9;fill-rule:nonzero;"/><path d="M280.997,141.854c-0.112,5.067 -0.938,7.255 -0.938,7.255l-20.98,3.196l-0.785,-5.447l-3.107,-21.509l2.917,-2.917c2.36,0.509 4.828,-0.107 6.671,-1.667c3.055,-2.641 13.893,-2.362 15.559,10.418c0.49,3.535 0.711,7.102 0.663,10.671Z" style="fill:#f5c0a9;fill-rule:nonzero;"/><path d="M276.03,201.208c0,0 4.721,-5.696 4.863,-9.446l-4.726,-7.921l-4.167,-4.465l-7.783,15.024c0,0 5.142,8.892 11.813,6.808Z" style="fill:#dfe5ee;fill-rule:nonzero;"/><path d="M276.03,201.208c0,0 4.721,-5.696 4.863,-9.446l-4.726,-7.921l-4.167,-4.465l-7.783,15.024c0,0 5.142,8.892 11.813,6.808Z" style="fill:#b47f8b;fill-rule:nonzero;"/><path d="M237.042,226.434c-0.395,0.309 -0.785,0.618 -1.187,0.923c-2.013,1.551 -4.052,3.069 -6.132,4.52c-0.495,0.346 -0.997,0.692 -1.488,1.031l-20.318,0l-91.281,0l-7.088,0l-35.115,-1.258l-28.239,-0.238l-7.069,-0.372l-35.271,-1.86c-1.293,-4.245 -2.264,-8.58 -2.906,-12.97c-0.145,-0.99 -0.275,-1.983 -0.372,-2.977l38.534,2.136l7.069,0.398l63.354,3.535l7.088,0.394l91.281,5.097l7.024,0.394l0.06,0l22.056,1.247Z" style="fill:#f17285;fill-rule:nonzero;"/><path d="M284.643,198.719c-7.743,2.233 -15.255,5.109 -22.324,9.183c-0.561,0.323 -1.116,0.654 -1.678,0.993c-0.561,0.339 -1.116,0.677 -1.655,1.027c-0.54,0.35 -1.083,0.696 -1.619,1.049l-0.826,0.558l-0.807,0.551c-0.796,0.547 -1.581,1.116 -2.366,1.667l-0.03,0.022c-0.517,0.372 -1.031,0.744 -1.544,1.116c-2.899,2.147 -5.734,4.394 -8.558,6.649c-0.595,0.476 -1.191,0.951 -1.789,1.425l-2.753,2.184c-0.54,0.428 -1.087,0.852 -1.63,1.276c-0.394,0.309 -0.785,0.618 -1.187,0.923l-20.835,-0.994l-0.06,0l-7.024,-0.327l-91.322,-4.327l-7.088,-0.339l-63.354,-3.01l-7.069,-0.338l-38.177,-1.797c-0.145,-0.99 -0.275,-1.983 -0.372,-2.977c-0.194,-1.704 -0.338,-3.415 -0.432,-5.134l38.977,-13.766l7.069,-2.504l6.422,-2.27l11.701,0.61l27.045,1.388l18.201,0.956l7.088,0.372l4.528,0.238l1.083,0.06l38.106,1.99l0.402,0.027l17.003,0.885l0.305,0l1.7,0.086l5.797,0.305l7.248,0.372l2.388,0.126l0.451,0.026l3.378,0.175l0.963,0.049l3.226,0.171l1.284,0.07l0.309,0l3.017,0.16l4.673,0.246l0.022,0l1.451,0.074l0.157,0l0.867,0.049l2.128,0.111l1.86,0.097l0.019,0l2.087,0.108l0.033,0l1.582,0.086l1.213,0.063l4.304,0.227l0.774,0.041l0.268,0l0.372,0.022l1.261,0.067l0.566,0.03l4.39,0.227l0.402,0l6.481,-0.056l0.045,0l24.641,-0.201l2.437,0l7.933,-0.063l1.183,0l5.659,-0.034Z" style="fill:#faced4;fill-rule:nonzero;"/><path d="M118.336,199.229l2.292,12.192l62.313,-0.937c0,0 4.688,1.354 4.583,-2.396c0,0 9.484,-8.963 57.521,1.458l-18.443,-14.484l-50.414,2.708l-58.458,-1.562l0.606,3.021Z" style="fill:#91bfc5;fill-rule:nonzero;"/><path d="M119.482,196.312l2.188,13.234c0,0 53.576,-1.563 62,-0.104l-6.366,-12.088c0,0 -32.395,-3.021 -57.822,-1.042Z" style="fill:#fff;fill-rule:nonzero;"/><path d="M119.482,196.312l2.188,13.234c0,0 53.576,-1.563 62,-0.104l-6.366,-12.088c0,0 -32.395,-3.021 -57.822,-1.042Z" style="fill-opacity:0.1;fill-rule:nonzero;"/><path d="M120.282,196.264l2.158,12.307c0,0 52.896,-1.451 61.23,-0.096l-6.277,-11.24c0,0 -32.004,-2.813 -57.111,-0.971Z" style="fill:#fff;fill-rule:nonzero;"/><path d="M121.253,196.643l2.102,11.512c0,0 51.735,-1.358 59.902,-0.09l-6.139,-10.518c0,0 -31.305,-2.641 -55.865,-0.904Z" style="fill-opacity:0.1;fill-rule:nonzero;"/><path d="M121.67,196.223l2.113,11.534c0,0 51.735,-1.358 59.902,-0.09l-6.154,-10.529c0,0 -31.302,-2.638 -55.861,-0.915Z" style="fill:#fff;fill-rule:nonzero;"/><path d="M191.695,164.947c-0.16,0.7 -0.937,1.861 -2.15,3.315c-6.266,7.546 -24.091,23.228 -27.585,26.138c-4.167,3.475 -13.476,2.232 -13.476,2.232l-17.226,0.279c0,0 -17.089,-0.696 -18.48,-20.835c-1.392,-20.14 20.005,6.113 20.005,6.113c0,0 5.358,1.027 7.088,0.833c2.5,-0.275 7.78,-3.192 7.78,-3.192c0,0 3.612,-2.642 6.946,-4.863c3.334,-2.221 15.839,-16.951 18.064,-22.093c1.41,-3.263 5.953,-8.598 9.089,-12.058c1.801,-1.991 3.136,-3.349 3.136,-3.349c0,0 7.78,23.172 6.809,27.48Z" style="fill:#f5c0a9;fill-rule:nonzero;"/><path d="M191.695,164.947c-0.16,0.7 -0.937,1.861 -2.15,3.315c-6.325,-6.44 -7.646,-19.291 -7.795,-27.461c1.801,-1.991 3.136,-3.349 3.136,-3.349c0,0 7.78,23.187 6.809,27.495Z" style="fill-opacity:0.1;fill-rule:nonzero;"/><path d="M257.587,154.046l-6.009,7.002l-7.854,0.476l-12.572,0.774c0,0 -16.951,-20.426 -13.766,-24.872c1.157,-1.603 1.347,-3.72 1.116,-5.718c-0.03,-0.276 -0.071,-0.551 -0.119,-0.823c-0.381,-2.114 -1.047,-4.166 -1.979,-6.101l0.416,-0.19l0.268,-0.123c0.662,1.843 1.118,3.753 1.362,5.696c0.041,0.264 0.078,0.54 0.115,0.823c0.13,1.004 0.25,2.12 0.372,3.348c0.968,11.244 8.04,15.474 11.233,16.821c1.026,0.433 2.03,0.918 3.006,1.455c3.071,1.693 6.614,2.334 10.083,1.823c7.88,-1.035 14.305,-6.761 14.305,-6.761l0.034,5.637l-0.011,0.733Z" style="fill-opacity:0.1;fill-rule:nonzero;"/><path d="M257.829,197.737c0,0 -51.683,-0.141 -58.496,-4.863c-6.812,-4.721 -2.775,-10.976 -2.916,-12.505c-0.142,-1.529 -3.055,-5.417 -4.026,-6.533c-0.971,-1.116 0.833,-2.5 0.554,-5.555c-0.279,-3.055 -2.638,0 -2.638,0c-9.729,-9.867 -7.645,-34.873 -7.645,-34.873c0,0 9.301,-2.359 13.766,-4.171c1.209,-0.491 3.092,-1.19 5.209,-1.946l0.785,-0.282c5.458,-1.954 11.946,-4.16 11.946,-4.16c0,0 1.247,-0.882 2.501,1.756c0.573,1.213 1.149,3.166 1.611,6.288c0.041,0.264 0.078,0.539 0.115,0.822c0.13,1.005 0.249,2.121 0.372,3.349c0.967,11.243 8.04,15.474 11.233,16.82c1.026,0.433 2.029,0.919 3.006,1.455c3.07,1.694 6.613,2.334 10.083,1.823c7.88,-1.034 14.305,-6.76 14.305,-6.76l0.034,5.637l0.096,16.936l0.105,26.762Z" style="fill:#c79da6;fill-rule:nonzero;"/><path d="M255.604,175.785l-0.834,5.28c0,0 -20.563,5.138 -28.618,6.667c-8.056,1.529 -25.427,-0.416 -26.677,2.917c-1.25,3.334 5.279,7.921 5.279,7.921l20.836,-0.279l39.319,3.059c0,0 15.005,-13.201 10.142,-22.372c-4.863,-9.172 -19.447,-3.193 -19.447,-3.193Z" style="fill:#f5c0a9;fill-rule:nonzero;"/><path d="M213.23,134.104c0,0 -9.45,7.779 -7.642,11.534c1.808,3.754 7.642,-11.534 7.642,-11.534Z" style="fill-opacity:0.1;fill-rule:nonzero;"/><path d="M201.558,148.134c0,0 -9.588,16.534 -9.029,17.784c0.558,1.251 3.196,5.697 3.054,2.363c-0.141,-3.334 5.975,-20.147 5.975,-20.147Z" style="fill-opacity:0.1;fill-rule:nonzero;"/><path d="M205.45,151.055c0,0 -2.232,10.28 -4.446,14.588c-2.214,4.309 4.446,-14.588 4.446,-14.588Z" style="fill-opacity:0.1;fill-rule:nonzero;"/><path d="M236.833,119.355c-3.724,6.83 -10.542,11.443 -18.268,12.36l-0.044,0c-5.993,0.704 -12.035,-0.878 -16.914,-4.427c5.581,-2.017 12.732,-4.443 12.732,-4.443c0,0 1.246,-0.882 2.5,1.756l18.759,-8.557c0.211,1.169 0.629,2.29 1.235,3.311Z" style="fill-opacity:0.1;fill-rule:nonzero;"/><path d="M239.765,107.01c0.007,4.184 -1.084,8.298 -3.162,11.929c-0.993,1.731 -2.197,3.333 -3.583,4.769c-3.867,4.026 -9.023,6.576 -14.57,7.203l-0.048,0c-0.887,0.102 -1.779,0.153 -2.672,0.153c-12.166,0 -22.511,-9.237 -23.882,-21.326c-0.104,-0.901 -0.155,-1.806 -0.153,-2.713l0,0c0,-13.185 10.85,-24.035 24.035,-24.035c13.185,0 24.035,10.85 24.035,24.035l0,0l0,-0.015Z" style="fill:#f5c0a9;fill-rule:nonzero;"/><path d="M255.328,152.491l2.233,-3.349c0,0 12.226,-14.588 24.184,-5.279l-0.417,12.784c0,0 -0.558,3.888 -1.392,5.953c-0.485,1.242 -0.329,2.648 0.417,3.754c0.746,1.106 0.696,3.348 -0.275,3.348c-0.971,0 -2.642,5.001 -2.642,5.001c0,0 -2.362,5.142 -0.971,7.504c1.392,2.363 4.446,10.28 4.446,10.28c0,0 -4.863,-2.917 -6.254,-7.78c0,0 -11.809,-9.171 -20.981,-3.348l1.652,-28.868Z" style="fill-opacity:0.1;fill-rule:nonzero;"/><path d="M280.997,141.854c-0.112,5.067 -0.938,7.255 -0.938,7.255l-20.98,3.196l-0.785,-5.447c2.745,-2.865 12.732,-11.973 22.703,-5.004Z" style="fill-opacity:0.1;fill-rule:nonzero;"/><path d="M255.328,151.747l2.233,-3.349c0,0 12.226,-14.588 24.184,-5.279l-0.417,12.784c0,0 -0.558,3.888 -1.392,5.953c-0.485,1.242 -0.329,2.648 0.417,3.754c0.746,1.106 0.696,3.348 -0.275,3.348c-0.971,0 -2.642,5.001 -2.642,5.001c0,0 -2.362,5.142 -0.971,7.504c1.392,2.363 4.446,10.28 4.446,10.28c0,0 -4.863,-2.917 -6.254,-7.78c0,0 -11.809,-9.171 -20.981,-3.348l1.652,-28.868Z" style="fill:#c79da6;fill-rule:nonzero;"/><path d="M275.055,142.3c0,0 -20.143,12.367 -19.172,23.213c0,0 11.255,-19.879 19.172,-23.213Z" style="fill-opacity:0.1;fill-rule:nonzero;"/><path d="M257.583,154.05l0.097,16.936c-3.81,0.171 -7.4,-0.324 -10.239,-2.791c-1.976,-1.718 -3.126,-4.092 -3.721,-6.659c-0.443,-2.069 -0.605,-4.188 -0.484,-6.299c-0.002,-0.021 -0.002,-0.043 0,-0.064c0.235,-4.676 1.31,-9.353 0.745,-14c-0.566,-4.647 -3.382,-9.551 -7.981,-10.529c-0.908,-0.198 -1.927,-0.268 -2.575,-0.934c-0.714,-0.744 -0.681,-1.902 -0.602,-2.932l0.133,-1.738c0.034,-0.446 0.049,-0.889 0.049,-1.332c-0.006,-8.115 -5.803,-15.156 -13.766,-16.72l-0.149,-0.026c-1.295,-0.26 -2.642,-0.517 -3.937,-0.22c-2.463,0.57 -4.055,2.958 -6.325,4.093c-4.353,2.173 -11.612,-0.205 -16.169,-0.952c-0.298,-0.049 -0.581,-0.105 -0.852,-0.168c-0.104,-0.9 -0.155,-1.806 -0.153,-2.712c0.006,-13.181 10.854,-24.024 24.035,-24.024c13.185,0 24.035,10.85 24.035,24.035c0,4.179 -1.09,8.288 -3.162,11.917c0.07,0.142 0.149,0.283 0.23,0.417c5.057,8.371 21.271,3.077 21.271,3.077l0.975,29.872l-1.455,1.753Z" style="fill-opacity:0.1;fill-rule:nonzero;"/><path d="M209.703,110.422c2.254,-1.138 3.847,-3.527 6.325,-4.093c1.291,-0.297 2.638,-0.04 3.94,0.216l0.149,0.03c8.441,1.67 14.365,9.477 13.703,18.056l-0.134,1.738c-0.082,1.026 -0.116,2.191 0.606,2.928c0.644,0.666 1.663,0.744 2.571,0.93c4.599,0.982 7.415,5.86 7.981,10.533c0.565,4.673 -0.529,9.365 -0.744,14.06c-0.216,4.695 0.647,9.878 4.196,12.962c5.581,4.837 14.064,2.084 21.45,1.641c-3.267,0 -5.715,-3.371 -5.894,-6.63c-0.178,-3.259 1.273,-6.362 2.66,-9.301c1.388,-2.94 2.78,-6.102 2.471,-9.354c-0.424,-4.465 -3.944,-8.04 -5.291,-12.337c-1.57,-5.001 -0.056,-10.37 0.655,-15.567c1.336,-9.733 -0.744,-20.69 -8.278,-26.982c-3.155,-2.63 -7.014,-4.249 -10.481,-6.452c-6.214,-3.94 -11.114,-9.718 -17.394,-13.55c-6.28,-3.832 -15.098,-5.253 -20.578,-0.342c-2.121,1.901 -3.49,4.539 -5.671,6.373c-4.26,3.591 -11.031,3.658 -14.447,8.063c-2.939,3.791 -2.143,9.175 -1.201,13.881c1.253,6.277 0.546,11.162 7.255,12.278c4.539,0.718 11.794,3.096 16.151,0.919Z" style="fill:#876363;fill-rule:nonzero;"/><path d="M264.976,166.424c-5.376,0.659 -10.704,0.998 -14.618,-2.396c-3.55,-3.084 -4.424,-8.263 -4.197,-12.962c0.227,-4.699 1.313,-9.395 0.744,-14.064c-0.569,-4.669 -3.382,-9.547 -7.981,-10.529c-0.908,-0.194 -1.923,-0.264 -2.571,-0.93c-0.718,-0.744 -0.688,-1.905 -0.606,-2.932l0.134,-1.738c0.662,-8.578 -5.262,-16.383 -13.703,-18.052l-0.149,-0.03c-1.302,-0.257 -2.649,-0.513 -3.94,-0.216c-2.463,0.57 -4.055,2.977 -6.325,4.093c-4.357,2.177 -11.608,-0.201 -16.173,-0.949c-6.697,-1.097 -5.998,-5.99 -7.256,-12.278c-0.703,-3.512 -1.324,-7.404 -0.372,-10.73c-0.178,0.19 -0.349,0.372 -0.513,0.599c-2.939,3.791 -2.143,9.175 -1.202,13.882c1.254,6.276 0.547,11.161 7.255,12.278c4.562,0.744 11.817,3.125 16.174,0.948c2.254,-1.138 3.847,-3.527 6.325,-4.092c1.291,-0.298 2.638,-0.041 3.94,0.216l0.149,0.029c8.441,1.671 14.365,9.477 13.703,18.056l-0.134,1.738c-0.082,1.027 -0.116,2.191 0.606,2.928c0.644,0.666 1.663,0.744 2.571,0.93c4.599,0.982 7.415,5.86 7.981,10.533c0.565,4.673 -0.525,9.365 -0.744,14.06c-0.22,4.696 0.647,9.878 4.196,12.963c5.581,4.837 14.064,2.083 21.45,1.641c-2.006,0.011 -3.691,-1.262 -4.744,-2.996Z" style="fill-opacity:0.1;fill-rule:nonzero;"/><path d="M113.979,178.836l22.938,-8.557c1.121,-0.419 2.389,0.159 2.809,1.28c0.419,1.121 -0.159,2.389 -1.28,2.809l-22.937,8.557l-4.919,-0.491l3.389,-3.598Z" style="fill:#535461;fill-rule:nonzero;"/><path d="M139.034,170.859c0.418,1.123 -0.161,2.391 -1.284,2.809l-22.952,8.588l-3.691,-0.372l-0.532,0.565l4.919,0.491l22.937,-8.557c1.121,-0.42 1.699,-1.688 1.28,-2.809c-0.169,-0.452 -0.483,-0.836 -0.893,-1.09c0.083,0.119 0.155,0.244 0.216,0.375Z" style="fill:#fff;fill-opacity:0.1;fill-rule:nonzero;"/><path d="M126.812,180.786c0,0 -7.226,-6.946 -6.947,2.083c0.279,9.03 6.947,-2.083 6.947,-2.083Z" style="fill:#f5c0a9;fill-rule:nonzero;"/><path d="M113.983,178.836l1.526,4.089l-4.034,-0.405l-0.881,-0.09l1.205,-1.279l2.184,-2.315Z" style="fill:#efc8c4;fill-rule:nonzero;"/><path d="M111.795,181.139c0.095,0.071 0.175,0.158 0.239,0.257c0.076,0.121 0.076,0.277 0,0.398c-0.064,0.066 -0.138,0.12 -0.22,0.16c-0.186,0.125 -0.307,0.327 -0.327,0.551l-0.886,-0.086l1.194,-1.28Z" style="fill:#727a9c;fill-rule:nonzero;"/><path d="M185.999,204.951c0,0 19.868,-4.171 53.204,1.116l-13.059,-9.584l-23.76,-4.863l-16.809,4.465l0.424,8.866Z" style="fill:#fff;fill-rule:nonzero;"/><path d="M185.999,204.951c0,0 19.868,-4.171 53.204,1.116l-13.059,-9.584l-23.76,-4.863l-16.809,4.465l0.424,8.866Z" style="fill-opacity:0.1;fill-rule:nonzero;"/><path d="M183.67,209.461c0,0 10.004,-27.064 61.39,0.085l-18.443,-11.869c0,0 -44.182,-12.207 -49.287,1.861l6.34,9.923Z" style="fill:#fff;fill-rule:nonzero;"/><path d="M183.67,209.442c0,0 10.004,-28.935 61.39,0.521l-18.443,-12.873c0,0 -44.197,-14.6 -49.313,0.68l6.366,11.672Z" style="fill-opacity:0.1;fill-rule:nonzero;"/><path d="M183.67,209.453c0,0 10.004,-29.363 61.39,0.093l-18.443,-12.873c0,0 -44.182,-14.183 -49.287,1.116l6.34,11.664Z" style="fill:#fff;fill-rule:nonzero;"/><path d="M183.67,209.461c0,0 10.004,-32.634 61.39,0.502l-18.458,-14.484c0,0 -44.182,-14.883 -49.287,2.291l6.355,11.691Z" style="fill-opacity:0.1;fill-rule:nonzero;"/><path d="M183.67,209.442c0,0 10.004,-33.031 61.39,0.104l-18.458,-14.484c0,0 -44.182,-14.882 -49.287,2.292l6.355,12.088Z" style="fill:#fff;fill-rule:nonzero;"/></g><defs><linearGradient id="_Linear1" x1="0" y1="0" x2="1" y2="0" gradientUnits="userSpaceOnUse" gradientTransform="matrix(8.36124e-15,-136.549,136.549,8.36124e-15,198.083,201.071)"><stop offset="0" style="stop-color:#808080;stop-opacity:0.25"/><stop offset="0.54" style="stop-color:#808080;stop-opacity:0.12"/><stop offset="1" style="stop-color:#808080;stop-opacity:0.1"/></linearGradient></defs></svg>