<?xml version="1.0" encoding="UTF-8" standalone="no"?><!DOCTYPE svg PUBLIC "-//W3C//DTD SVG 1.1//EN" "http://www.w3.org/Graphics/SVG/1.1/DTD/svg11.dtd"><svg width="100%" height="100%" viewBox="0 0 87 22" version="1.1" xmlns="http://www.w3.org/2000/svg" xmlns:xlink="http://www.w3.org/1999/xlink" xml:space="preserve" xmlns:serif="http://www.serif.com/" style="fill-rule:evenodd;clip-rule:evenodd;stroke-linejoin:round;stroke-miterlimit:2;"><rect id="Prancheta1" x="0" y="0" width="86.76" height="21.443" style="fill:none;"/><clipPath id="_clip1"><rect id="Prancheta11" serif:id="Prancheta1" x="0" y="0" width="86.76" height="21.443"/></clipPath><g clip-path="url(#_clip1)"><g><path d="M7.087,16.65c-0.9,0 -1.687,-0.191 -2.362,-0.574c-0.675,-0.382 -1.208,-0.919 -1.598,-1.609l0,1.958l-3.127,0l0,-16.425l3.6,0l0,6.547c0.39,-0.675 0.911,-1.203 1.564,-1.586c0.652,-0.382 1.421,-0.574 2.306,-0.574c0.75,0 1.44,0.162 2.07,0.484c0.63,0.323 1.17,0.761 1.62,1.316c0.45,0.555 0.802,1.212 1.057,1.969c0.255,0.758 0.383,1.564 0.383,2.419c0,0.855 -0.139,1.654 -0.416,2.396c-0.278,0.743 -0.664,1.388 -1.159,1.935c-0.495,0.548 -1.08,0.975 -1.755,1.283c-0.675,0.307 -1.403,0.461 -2.183,0.461Zm-1.012,-3.038c0.42,0 0.802,-0.078 1.147,-0.236c0.345,-0.157 0.642,-0.371 0.889,-0.641c0.248,-0.27 0.443,-0.589 0.585,-0.956c0.143,-0.368 0.214,-0.769 0.214,-1.204c0,-0.42 -0.068,-0.821 -0.203,-1.204c-0.135,-0.382 -0.318,-0.716 -0.551,-1.001c-0.232,-0.285 -0.514,-0.51 -0.844,-0.675c-0.33,-0.165 -0.682,-0.248 -1.057,-0.248c-0.57,0 -1.091,0.195 -1.564,0.585c-0.472,0.39 -0.836,0.878 -1.091,1.463l0,2.475c0.24,0.51 0.589,0.911 1.046,1.204c0.458,0.292 0.934,0.438 1.429,0.438Z" style="fill:#fb1200;fill-rule:nonzero;"/><path d="M14.355,0l3.6,0l0,12.217c0,0.9 0.382,1.35 1.147,1.35c0.18,0 0.379,-0.026 0.597,-0.078c0.217,-0.053 0.416,-0.132 0.596,-0.237l0.472,2.7c-0.45,0.21 -0.967,0.375 -1.552,0.495c-0.585,0.12 -1.133,0.18 -1.643,0.18c-1.035,0 -1.83,-0.27 -2.385,-0.81c-0.555,-0.54 -0.832,-1.32 -0.832,-2.34l0,-13.477Z" style="fill:#fb1200;fill-rule:nonzero;"/><path d="M27.562,16.65c-1.005,0 -1.901,-0.165 -2.688,-0.495c-0.788,-0.33 -1.452,-0.776 -1.992,-1.339c-0.54,-0.562 -0.948,-1.215 -1.226,-1.957c-0.277,-0.743 -0.416,-1.519 -0.416,-2.329c0,-0.81 0.139,-1.586 0.416,-2.329c0.278,-0.742 0.686,-1.395 1.226,-1.957c0.54,-0.563 1.204,-1.013 1.992,-1.35c0.787,-0.338 1.683,-0.507 2.688,-0.507c1.005,0 1.898,0.169 2.678,0.507c0.78,0.337 1.44,0.787 1.98,1.35c0.54,0.562 0.952,1.215 1.237,1.957c0.285,0.743 0.428,1.519 0.428,2.329c0,0.81 -0.139,1.586 -0.416,2.329c-0.278,0.742 -0.687,1.395 -1.227,1.957c-0.54,0.563 -1.203,1.009 -1.991,1.339c-0.787,0.33 -1.684,0.495 -2.689,0.495Zm-2.632,-6.12c0,0.93 0.247,1.676 0.742,2.239c0.495,0.562 1.125,0.843 1.89,0.843c0.375,0 0.72,-0.075 1.035,-0.225c0.315,-0.15 0.589,-0.36 0.822,-0.63c0.232,-0.27 0.416,-0.596 0.551,-0.978c0.135,-0.383 0.202,-0.799 0.202,-1.249c0,-0.93 -0.247,-1.676 -0.742,-2.239c-0.495,-0.562 -1.118,-0.844 -1.868,-0.844c-0.375,0 -0.723,0.075 -1.046,0.225c-0.322,0.15 -0.6,0.36 -0.832,0.63c-0.233,0.27 -0.417,0.597 -0.552,0.979c-0.135,0.383 -0.202,0.799 -0.202,1.249Z" style="fill:#fb1200;fill-rule:nonzero;"/><path d="M40.252,16.47c-0.78,0 -1.492,-0.158 -2.137,-0.473c-0.645,-0.315 -1.196,-0.742 -1.654,-1.282c-0.457,-0.54 -0.814,-1.17 -1.069,-1.89c-0.255,-0.72 -0.382,-1.493 -0.382,-2.318c0,-0.87 0.135,-1.676 0.405,-2.418c0.27,-0.743 0.645,-1.388 1.125,-1.935c0.48,-0.548 1.057,-0.979 1.732,-1.294c0.675,-0.315 1.418,-0.473 2.228,-0.473c0.9,0 1.684,0.192 2.351,0.574c0.668,0.383 1.204,0.911 1.609,1.586l0,-1.935l3.127,0l0,11.003c0,0.9 -0.168,1.71 -0.506,2.43c-0.337,0.72 -0.806,1.331 -1.406,1.834c-0.6,0.502 -1.32,0.888 -2.16,1.158c-0.84,0.27 -1.763,0.405 -2.768,0.405c-1.275,0 -2.362,-0.202 -3.262,-0.607c-0.9,-0.405 -1.688,-0.99 -2.363,-1.755l1.935,-1.958c0.435,0.495 0.975,0.889 1.62,1.182c0.645,0.292 1.335,0.438 2.07,0.438c0.435,0 0.848,-0.06 1.238,-0.18c0.39,-0.12 0.735,-0.303 1.035,-0.551c0.3,-0.247 0.536,-0.57 0.709,-0.967c0.172,-0.398 0.258,-0.874 0.258,-1.429l0,-1.148c-0.36,0.66 -0.877,1.159 -1.552,1.497c-0.675,0.337 -1.403,0.506 -2.183,0.506Zm1.238,-2.858c0.555,0 1.05,-0.153 1.485,-0.461c0.435,-0.307 0.772,-0.701 1.012,-1.181l0,-2.475c-0.24,-0.63 -0.607,-1.129 -1.102,-1.496c-0.495,-0.368 -1.02,-0.552 -1.575,-0.552c-0.39,0 -0.746,0.087 -1.069,0.259c-0.322,0.173 -0.6,0.405 -0.832,0.698c-0.233,0.292 -0.413,0.63 -0.54,1.012c-0.128,0.383 -0.192,0.776 -0.192,1.181c0,0.435 0.072,0.837 0.214,1.204c0.143,0.368 0.341,0.686 0.596,0.956c0.255,0.27 0.552,0.48 0.889,0.63c0.338,0.15 0.709,0.225 1.114,0.225Z" style="fill:#fb1200;fill-rule:nonzero;"/><path d="M53.415,16.65c-0.585,0 -1.129,-0.094 -1.631,-0.281c-0.503,-0.188 -0.934,-0.45 -1.294,-0.788c-0.36,-0.337 -0.645,-0.735 -0.855,-1.192c-0.21,-0.458 -0.315,-0.957 -0.315,-1.497c0,-0.585 0.124,-1.117 0.371,-1.597c0.248,-0.48 0.596,-0.893 1.046,-1.238c0.45,-0.345 0.983,-0.615 1.598,-0.81c0.615,-0.195 1.297,-0.292 2.047,-0.292c0.495,0 0.975,0.041 1.44,0.124c0.465,0.082 0.87,0.206 1.215,0.371l0,-0.54c0,-1.365 -0.787,-2.048 -2.362,-2.048c-0.645,0 -1.26,0.109 -1.845,0.327c-0.585,0.217 -1.2,0.543 -1.845,0.978l-1.058,-2.25c0.78,-0.51 1.59,-0.892 2.43,-1.147c0.84,-0.255 1.733,-0.383 2.678,-0.383c1.785,0 3.165,0.42 4.14,1.26c0.975,0.84 1.462,2.07 1.462,3.69l0,3.038c0,0.36 0.057,0.611 0.169,0.754c0.113,0.142 0.311,0.228 0.596,0.258l0,3.038c-0.315,0.075 -0.6,0.124 -0.855,0.146c-0.255,0.023 -0.487,0.034 -0.697,0.034c-0.675,0 -1.185,-0.131 -1.53,-0.394c-0.345,-0.262 -0.563,-0.634 -0.653,-1.114l-0.067,-0.54c-0.525,0.675 -1.151,1.193 -1.879,1.553c-0.727,0.36 -1.496,0.54 -2.306,0.54Zm1.057,-2.588c0.39,0 0.769,-0.067 1.137,-0.202c0.367,-0.135 0.671,-0.315 0.911,-0.54c0.345,-0.27 0.517,-0.555 0.517,-0.855l0,-1.125c-0.315,-0.12 -0.656,-0.214 -1.023,-0.281c-0.368,-0.068 -0.709,-0.102 -1.024,-0.102c-0.66,0 -1.204,0.15 -1.631,0.45c-0.428,0.3 -0.642,0.69 -0.642,1.17c0,0.435 0.165,0.792 0.495,1.069c0.33,0.278 0.75,0.416 1.26,0.416Z" style="fill:#fb1200;fill-rule:nonzero;"/><rect x="63.225" y="12.757" width="2.947" height="3.668" style="fill:#fb1200;fill-rule:nonzero;"/><path d="M71.977,16.65c-0.585,0 -1.128,-0.094 -1.631,-0.281c-0.502,-0.188 -0.934,-0.45 -1.294,-0.788c-0.36,-0.337 -0.645,-0.735 -0.855,-1.192c-0.21,-0.458 -0.315,-0.957 -0.315,-1.497c0,-0.585 0.124,-1.117 0.372,-1.597c0.247,-0.48 0.596,-0.893 1.046,-1.238c0.45,-0.345 0.982,-0.615 1.597,-0.81c0.615,-0.195 1.298,-0.292 2.048,-0.292c0.495,0 0.975,0.041 1.44,0.124c0.465,0.082 0.87,0.206 1.215,0.371l0,-0.54c0,-1.365 -0.788,-2.048 -2.363,-2.048c-0.645,0 -1.26,0.109 -1.845,0.327c-0.585,0.217 -1.2,0.543 -1.845,0.978l-1.057,-2.25c0.78,-0.51 1.59,-0.892 2.43,-1.147c0.84,-0.255 1.732,-0.383 2.677,-0.383c1.785,0 3.165,0.42 4.14,1.26c0.975,0.84 1.463,2.07 1.463,3.69l0,3.038c0,0.36 0.056,0.611 0.169,0.754c0.112,0.142 0.311,0.228 0.596,0.258l0,3.038c-0.315,0.075 -0.6,0.124 -0.855,0.146c-0.255,0.023 -0.488,0.034 -0.698,0.034c-0.675,0 -1.185,-0.131 -1.53,-0.394c-0.345,-0.262 -0.562,-0.634 -0.652,-1.114l-0.068,-0.54c-0.525,0.675 -1.151,1.193 -1.878,1.553c-0.728,0.36 -1.497,0.54 -2.307,0.54Zm1.058,-2.588c0.39,0 0.769,-0.067 1.136,-0.202c0.368,-0.135 0.671,-0.315 0.911,-0.54c0.345,-0.27 0.518,-0.555 0.518,-0.855l0,-1.125c-0.315,-0.12 -0.656,-0.214 -1.024,-0.281c-0.367,-0.068 -0.709,-0.102 -1.024,-0.102c-0.66,0 -1.203,0.15 -1.631,0.45c-0.427,0.3 -0.641,0.69 -0.641,1.17c0,0.435 0.165,0.792 0.495,1.069c0.33,0.278 0.75,0.416 1.26,0.416Z" style="fill:#fb1200;fill-rule:nonzero;"/><path d="M84.622,3.555l-2.295,-0.63l1.17,-2.925l3.263,0l-2.138,3.555Zm-2.812,12.87l0,-11.813l3.6,0l0,11.813l-3.6,0Z" style="fill:#fb1200;fill-rule:nonzero;"/></g></g></svg>