<?xml version="1.0" encoding="UTF-8" standalone="no"?><!DOCTYPE svg PUBLIC "-//W3C//DTD SVG 1.1//EN" "http://www.w3.org/Graphics/SVG/1.1/DTD/svg11.dtd"><svg width="100%" height="100%" viewBox="0 0 21 31" version="1.1" xmlns="http://www.w3.org/2000/svg" xmlns:xlink="http://www.w3.org/1999/xlink" xml:space="preserve" xmlns:serif="http://www.serif.com/" style="fill-rule:evenodd;clip-rule:evenodd;stroke-linejoin:round;stroke-miterlimit:2;"><g><path d="M20.442,0L0,0L0,30.124L10.221,23.556L20.442,30.124L20.442,0Z" style="fill:#f2ce1a;"/><path d="M9.797,6.009L8.457,8.724L5.461,9.161C4.924,9.239 4.709,9.902 5.098,10.281L7.266,12.393L6.753,15.377C6.661,15.917 7.229,16.321 7.705,16.068L10.385,14.659L13.066,16.068C13.541,16.318 14.109,15.917 14.017,15.377L13.504,12.393L15.672,10.281C16.062,9.902 15.846,9.239 15.309,9.161L12.313,8.724L10.974,6.009C10.734,5.525 10.039,5.519 9.797,6.009Z" style="fill:#fff;fill-rule:nonzero;"/></g></svg>